<svg width="46" height="45" viewBox="0 0 46 45" fill="none" xmlns="http://www.w3.org/2000/svg">
<path d="M6.36191 13.9499C6.85897 13.9499 7.26191 13.547 7.26191 13.0499C7.26191 12.5528 6.85897 12.1499 6.36191 12.1499C5.86486 12.1499 5.46191 12.5528 5.46191 13.0499C5.46191 13.547 5.86486 13.9499 6.36191 13.9499Z" fill="#EE3E54"/>
<path d="M35.1619 6.2999C35.4104 6.2999 35.6119 6.09843 35.6119 5.8499C35.6119 5.60137 35.4104 5.3999 35.1619 5.3999C34.9134 5.3999 34.7119 5.60137 34.7119 5.8499C34.7119 6.09843 34.9134 6.2999 35.1619 6.2999Z" fill="#F1BC19"/>
<path d="M23.0118 39.1501C32.2074 39.1501 39.6618 31.6956 39.6618 22.5001C39.6618 13.3046 32.2074 5.8501 23.0118 5.8501C13.8163 5.8501 6.36182 13.3046 6.36182 22.5001C6.36182 31.6956 13.8163 39.1501 23.0118 39.1501Z" fill="#C0E5E4"/>
<path d="M37.8615 8.5502C38.8556 8.5502 39.6615 7.74431 39.6615 6.7502C39.6615 5.75608 38.8556 4.9502 37.8615 4.9502C36.8674 4.9502 36.0615 5.75608 36.0615 6.7502C36.0615 7.74431 36.8674 8.5502 37.8615 8.5502Z" fill="#F1BC19"/>
<path d="M39.6617 11.6999C40.1588 11.6999 40.5617 11.297 40.5617 10.7999C40.5617 10.3028 40.1588 9.8999 39.6617 9.8999C39.1647 9.8999 38.7617 10.3028 38.7617 10.7999C38.7617 11.297 39.1647 11.6999 39.6617 11.6999Z" fill="#EE3E54"/>
<path d="M36.9615 35.0998C37.4586 35.0998 37.8615 34.6969 37.8615 34.1998C37.8615 33.7027 37.4586 33.2998 36.9615 33.2998C36.4645 33.2998 36.0615 33.7027 36.0615 34.1998C36.0615 34.6969 36.4645 35.0998 36.9615 35.0998Z" fill="#FBCD59"/>
<path d="M7.26191 30.1498C8.25603 30.1498 9.06191 29.3439 9.06191 28.3498C9.06191 27.3557 8.25603 26.5498 7.26191 26.5498C6.2678 26.5498 5.46191 27.3557 5.46191 28.3498C5.46191 29.3439 6.2678 30.1498 7.26191 30.1498Z" fill="#FBCD59"/>
<path d="M11.7618 40.05C12.2589 40.05 12.6618 39.6471 12.6618 39.15C12.6618 38.6529 12.2589 38.25 11.7618 38.25C11.2648 38.25 10.8618 38.6529 10.8618 39.15C10.8618 39.6471 11.2648 40.05 11.7618 40.05Z" fill="#EE3E54"/>
<path d="M8.83691 25.2002C9.45823 25.2002 9.96191 24.6965 9.96191 24.0752C9.96191 23.4539 9.45823 22.9502 8.83691 22.9502C8.21559 22.9502 7.71191 23.4539 7.71191 24.0752C7.71191 24.6965 8.21559 25.2002 8.83691 25.2002Z" fill="white"/>
<path d="M9.96172 30.6002C10.2102 30.6002 10.4117 30.3987 10.4117 30.1502C10.4117 29.9017 10.2102 29.7002 9.96172 29.7002C9.71319 29.7002 9.51172 29.9017 9.51172 30.1502C9.51172 30.3987 9.71319 30.6002 9.96172 30.6002Z" fill="#F1BC19"/>
<path d="M36.5115 15.7501C36.7601 15.7501 36.9615 15.5486 36.9615 15.3001C36.9615 15.0516 36.7601 14.8501 36.5115 14.8501C36.263 14.8501 36.0615 15.0516 36.0615 15.3001C36.0615 15.5486 36.263 15.7501 36.5115 15.7501Z" fill="white"/>
<path d="M13.1141 29.2505L13.1123 15.7505C13.1123 14.0108 14.5226 12.6001 16.2623 12.6001H29.7619C31.5016 12.6001 32.9119 14.0104 32.9119 15.7501V29.2501C32.9119 30.9898 31.5016 32.4001 29.7619 32.4001H16.2641C14.5244 32.4001 13.1141 30.9902 13.1141 29.2505Z" fill="#78A0CF"/>
<path d="M29.7616 12.7799C31.3992 12.7799 32.7316 14.1124 32.7316 15.7499V29.2499C32.7316 30.8875 31.3992 32.2199 29.7616 32.2199H16.2616C14.6241 32.2199 13.2916 30.8875 13.2916 29.2499V15.7499C13.2916 14.1124 14.6241 12.7799 16.2616 12.7799H29.7616ZM29.7616 12.1499H16.2616C14.2735 12.1499 12.6616 13.7618 12.6616 15.7499V29.2499C12.6616 31.238 14.2735 32.8499 16.2616 32.8499H29.7616C31.7497 32.8499 33.3616 31.238 33.3616 29.2499V15.7499C33.3616 13.7618 31.7497 12.1499 29.7616 12.1499Z" fill="#472B29"/>
<path d="M28.1868 26.7751H17.8368C17.0912 26.7751 16.4868 26.1707 16.4868 25.4251V19.5751C16.4868 18.8294 17.0912 18.2251 17.8368 18.2251H28.1868C28.9325 18.2251 29.5368 18.8294 29.5368 19.5751V25.4251C29.5368 26.1707 28.9325 26.7751 28.1868 26.7751Z" fill="white"/>
<path d="M28.1867 27H17.8367C16.9682 27 16.2617 26.2935 16.2617 25.425V19.575C16.2617 18.7065 16.9682 18 17.8367 18H28.1867C29.0552 18 29.7617 18.7065 29.7617 19.575V25.425C29.7617 26.2935 29.0552 27 28.1867 27ZM17.8367 18.45C17.2166 18.45 16.7117 18.9549 16.7117 19.575V25.425C16.7117 26.0451 17.2166 26.55 17.8367 26.55H28.1867C28.8068 26.55 29.3117 26.0451 29.3117 25.425V19.575C29.3117 18.9549 28.8068 18.45 28.1867 18.45H17.8367Z" fill="#472B29"/>
<path d="M23.0115 24.2841C22.5273 24.2841 22.0436 24.1 21.675 23.7315L16.7772 18.8341C16.6895 18.7464 16.6895 18.6037 16.7772 18.516C16.865 18.4282 17.0076 18.4282 17.0954 18.516L21.9932 23.4133C22.5548 23.9745 23.4678 23.9745 24.0294 23.4133L28.9272 18.5155C29.015 18.4278 29.1576 18.4278 29.2454 18.5155C29.3331 18.6033 29.3331 18.7459 29.2454 18.8337L24.348 23.7315C23.9795 24.1 23.4957 24.2841 23.0115 24.2841Z" fill="#472B29"/>
<path d="M16.9365 26.5501C16.8789 26.5501 16.8213 26.528 16.7772 26.4844C16.6895 26.3966 16.6895 26.254 16.7772 26.1662L20.6022 22.3412C20.69 22.2535 20.8326 22.2535 20.9204 22.3412C21.0081 22.429 21.0081 22.5716 20.9204 22.6594L17.0954 26.4844C17.0517 26.528 16.9941 26.5501 16.9365 26.5501Z" fill="#472B29"/>
<path d="M29.0867 26.5501C29.0291 26.5501 28.9715 26.528 28.9274 26.4844L25.1024 22.6594C25.0147 22.5716 25.0147 22.429 25.1024 22.3412C25.1902 22.2535 25.3328 22.2535 25.4206 22.3412L29.2456 26.1662C29.3333 26.254 29.3333 26.3966 29.2456 26.4844C29.2019 26.528 29.1443 26.5501 29.0867 26.5501Z" fill="#472B29"/>
<path d="M31.7869 18.9C31.6627 18.9 31.5619 18.7992 31.5619 18.675V15.975C31.5619 14.8586 30.6534 13.95 29.5369 13.95H23.6869C23.5627 13.95 23.4619 13.8492 23.4619 13.725C23.4619 13.6008 23.5627 13.5 23.6869 13.5H29.5369C30.9018 13.5 32.0119 14.6102 32.0119 15.975V18.675C32.0119 18.7992 31.9111 18.9 31.7869 18.9Z" fill="#472B29"/>
<path d="M22.3367 13.95H20.9867C20.8625 13.95 20.7617 13.8492 20.7617 13.725C20.7617 13.6008 20.8625 13.5 20.9867 13.5H22.3367C22.4609 13.5 22.5617 13.6008 22.5617 13.725C22.5617 13.8492 22.4609 13.95 22.3367 13.95Z" fill="#472B29"/>
<path d="M29.5367 31.5H16.4867C15.1219 31.5 14.0117 30.3898 14.0117 29.025V15.975C14.0117 14.6101 15.1219 13.5 16.4867 13.5H19.6367C19.7609 13.5 19.8617 13.6008 19.8617 13.725C19.8617 13.8492 19.7609 13.95 19.6367 13.95H16.4867C15.3703 13.95 14.4617 14.8585 14.4617 15.975V29.025C14.4617 30.1414 15.3703 31.05 16.4867 31.05H29.5367C30.6532 31.05 31.5617 30.1414 31.5617 29.025V27.225C31.5617 27.1008 31.6625 27 31.7867 27C31.9109 27 32.0117 27.1008 32.0117 27.225V29.025C32.0117 30.3898 30.9016 31.5 29.5367 31.5Z" fill="#472B29"/>
<path d="M31.7865 26.1001C31.6623 26.1001 31.5615 25.9993 31.5615 25.8751V21.8251C31.5615 21.7009 31.6623 21.6001 31.7865 21.6001C31.9107 21.6001 32.0115 21.7009 32.0115 21.8251V25.8751C32.0115 25.9993 31.9107 26.1001 31.7865 26.1001Z" fill="#472B29"/>
</svg>
