<svg width="138" height="48" viewBox="0 0 138 48" fill="none" xmlns="http://www.w3.org/2000/svg">
<path fill-rule="evenodd" clip-rule="evenodd" d="M77.5772 9.71628H92.6426C91.0151 9.53544 88.5833 9.31228 86.3381 9.10623L86.3379 9.10622C83.7871 8.87212 81.477 8.66013 80.8607 8.5574C79.779 8.5574 79.573 7.65605 79.5086 7.20537V4.11503C79.5086 3.03341 80.3456 2.63424 80.8607 2.56986C83.5647 2.89177 89.2046 3.57422 90.1317 3.72874C91.0588 3.88325 93.4796 7.52728 94.5741 9.32998C96.0163 9.41687 97.9182 9.54127 99.9873 9.67661C105.584 10.0427 112.405 10.4889 114.661 10.4889C107.135 -1.15938 90.2972 -0.171296 84.2031 0.186323C83.729 0.214148 83.3199 0.238156 82.9853 0.252098C79.2769 0.406616 77.7059 2.89177 77.384 4.11503L77.5772 9.71628ZM71.7828 6.81908L0.511719 7.01223C24.3975 5.20953 72.5167 1.60412 73.9074 1.60412C75.298 1.60412 75.7745 2.50547 75.8388 2.95615L74.68 19.5667H73.9074V17.0558L25.6208 13.9655H73.3279L72.9417 12.6135L14.9977 9.52313L72.3622 8.94369L71.7828 6.81908ZM102.879 29.8035C97.1622 29.4945 93.6727 32.1213 92.6426 33.4733C92.3207 31.3487 93.1061 26.7132 98.8233 25.168C105.97 23.2365 114.275 28.4515 114.275 37.7225C111.764 32.5076 107.708 29.9967 102.879 29.8035ZM101.72 32.5076C102.879 34.2459 105.506 37.9929 106.742 39.0745C106.794 39.1194 106.845 39.1644 106.896 39.2096L106.968 39.2728C108.443 40.5727 110.02 41.9624 113.696 41.7786C113.502 37.5294 105.777 31.1555 101.72 32.5076ZM133.01 40.0403V33.6664C133.203 33.2801 136.873 35.0185 137.066 37.3362C136.603 39.3449 134.169 39.9759 133.01 40.0403ZM92.8357 39.0745C93.8015 38.1088 96.2737 36.2932 98.437 36.7568C100.562 37.2121 101.971 40.6485 102.758 42.5686L102.758 42.5688C102.973 43.0923 103.142 43.5032 103.266 43.7101C103.845 44.6758 105.583 46.6073 108.287 46.9935C110.451 47.3026 127.087 46.736 135.135 46.4141C136.076 45.8991 137.858 44.0577 137.453 40.8129C135.521 40.6197 134.652 40.8129 134.362 43.1306C134.208 44.3668 131.594 44.8046 130.306 44.8689H108.674C107.322 44.8689 104.48 43.3238 104.038 41.006C102.879 36.5636 96.6987 32.5076 92.8357 39.0745ZM88.2002 29.0309C88.329 26.3913 87.389 20.996 82.599 20.5325C80.8993 20.378 79.8305 20.3393 79.5086 20.3393L79.3155 13.9655C79.3799 13.3217 80.0494 11.9568 82.2127 11.6477C84.3759 11.3387 90.1961 11.519 92.8357 11.6477C94.5741 11.8409 95.8488 12.9611 96.3124 15.897C96.6987 18.7942 98.8233 21.6914 100.755 21.8845C102.493 22.2708 109.06 24.0091 111.378 25.5543C113.696 27.0995 114.661 27.872 115.048 32.1213C115.357 35.5206 115.563 38.1732 115.627 39.0745C115.71 40.2334 116.61 41.6241 118.233 41.7786C119.857 41.9331 126.443 41.7142 129.534 41.5854C130.306 41.5533 131.851 40.3107 131.851 39.0745C131.851 37.8384 131.723 31.735 131.658 28.8378C131.465 28.5802 130.692 27.8334 129.147 26.9063C127.602 25.9792 124.769 24.4598 123.546 23.816L125.284 23.6228V17.4421H122.194V21.6914C121.357 18.4723 118.717 12.3688 116.206 12.034C114.569 11.8157 109.477 11.5151 104.172 11.202C100.091 10.9611 95.8844 10.7128 93.0289 10.4889H81.4401C80.2812 10.6176 77.8862 11.416 77.5772 13.5792C77.5772 15.7424 77.7059 19.8887 77.7703 21.6914C80.4744 21.3051 86.346 22.2322 88.2002 29.0309ZM97.4713 12.2272L115.82 13.3861C116.979 14.3518 119.451 17.3649 120.069 21.6913C118.215 21.5368 106.549 20.7256 100.948 20.3393C99.4027 18.601 97.7803 15.163 97.4713 12.2272ZM116.4 29.2241H129.92L130.306 38.4951C130.306 39.0745 129.534 40.2334 128.375 40.2334H118.911C118.331 40.2334 117.134 39.8471 116.979 38.3019C116.898 37.4873 116.795 35.6886 116.687 33.8113L116.687 33.8107L116.687 33.8104C116.591 32.127 116.491 30.3806 116.4 29.2241Z" fill="#CCAC00"/>
<g filter="url(#filter0_i_693_412)">
<path d="M38.1699 23.564H33.7329L42.1399 35.9253L47.8613 27.6052L47.9781 35.9253L53.8163 27.6052V35.9253H61.2891L65.3758 30.1012L69.1123 35.9253H73.6661L65.1423 23.564L58.0197 33.667V23.564H53.8163L50.7804 27.3675V23.564H46.1099L42.1399 29.1504L38.1699 23.564Z" fill="#E52B2E"/>
<path d="M46.5769 35.9253H43.6578L45.1174 33.9642L46.5769 32.003V35.9253Z" fill="#E52B2E"/>
<path d="M80.0881 23.564H67.2441L69.5793 26.6543H80.0881V23.564Z" fill="#E52B2E"/>
<path d="M75.7678 28.3183H70.5134L75.7678 35.6876V28.3183Z" fill="#E52B2E"/>
</g>
<path d="M63.1667 41.6978L63.7136 38.9628H62.6382L62.7402 38.4529H65.4891L65.3871 38.9628H64.3116L63.7693 41.6978H63.1667ZM65.4606 41.6978L65.952 39.2224H66.5036L66.3645 39.927L66.3136 39.723C66.4279 39.5222 66.5731 39.3846 66.7493 39.3105C66.9254 39.2332 67.1402 39.1946 67.3936 39.1946L67.287 39.7462C67.2623 39.74 67.2391 39.7369 67.2175 39.7369C67.1959 39.7338 67.1711 39.7323 67.1433 39.7323C66.9177 39.7323 66.7308 39.7926 66.5824 39.9131C66.4341 40.0305 66.3352 40.219 66.2857 40.4786L66.0401 41.6978H65.4606ZM68.7526 41.7302C68.5517 41.7302 68.3678 41.6869 68.2009 41.6004C68.0371 41.5139 67.9058 41.3903 67.8069 41.2296C67.7111 41.0658 67.6632 40.8695 67.6632 40.6409C67.6632 40.4307 67.6972 40.2376 67.7652 40.0614C67.8363 39.8853 67.9352 39.7323 68.0619 39.6025C68.1886 39.4727 68.3354 39.3723 68.5022 39.3012C68.6722 39.2301 68.8576 39.1946 69.0585 39.1946C69.2656 39.1946 69.4433 39.2317 69.5916 39.3058C69.743 39.38 69.8574 39.4928 69.9346 39.6442C70.0119 39.7926 70.0474 39.978 70.0412 40.2005C70.0351 40.5064 69.9794 40.7753 69.8744 41.0071C69.7693 41.2357 69.6225 41.4134 69.434 41.5401C69.2455 41.6669 69.0183 41.7302 68.7526 41.7302ZM68.9009 41.2342C69.0678 41.2342 69.2146 41.1956 69.3413 41.1183C69.468 41.038 69.5684 40.9283 69.6426 40.7892C69.7168 40.6501 69.7538 40.4894 69.7538 40.3071C69.7538 40.1155 69.6967 39.9641 69.5823 39.8528C69.468 39.7416 69.3073 39.6859 69.1002 39.6859C68.9364 39.6859 68.7896 39.7261 68.6599 39.8065C68.5331 39.8837 68.4327 39.9919 68.3585 40.1309C68.2844 40.27 68.2473 40.4307 68.2473 40.613C68.2473 40.8046 68.3045 40.9561 68.4188 41.0673C68.5331 41.1786 68.6938 41.2342 68.9009 41.2342ZM69.5082 41.6978L69.6194 41.1322L69.777 40.474L69.8558 39.8111L69.9717 39.2224H70.5511L70.0598 41.6978H69.5082ZM72.9363 39.1946C73.1496 39.1946 73.3304 39.2378 73.4787 39.3244C73.627 39.4109 73.7306 39.5391 73.7893 39.7091C73.8511 39.876 73.8573 40.0815 73.8078 40.3256L73.5343 41.6978H72.9549L73.2237 40.3395C73.2639 40.1387 73.2454 39.9826 73.1681 39.8714C73.0909 39.757 72.9502 39.6998 72.7463 39.6998C72.533 39.6998 72.3569 39.7586 72.2178 39.876C72.0788 39.9934 71.9845 40.1727 71.9351 40.4137L71.6755 41.6978H71.096L71.5874 39.2224H72.139L72 39.927L71.9072 39.7045C72.0247 39.5283 72.1715 39.4001 72.3476 39.3197C72.5269 39.2363 72.7231 39.1946 72.9363 39.1946ZM75.3912 41.7302C75.1748 41.7302 74.9724 41.7039 74.7839 41.6514C74.5954 41.5989 74.4502 41.5355 74.3482 41.4613L74.5892 41.0163C74.6912 41.0874 74.8179 41.1461 74.9693 41.1925C75.1239 41.2357 75.2845 41.2574 75.4514 41.2574C75.643 41.2574 75.7836 41.2311 75.8733 41.1786C75.966 41.126 76.0123 41.0534 76.0123 40.9607C76.0123 40.8927 75.9799 40.8417 75.915 40.8077C75.8501 40.7737 75.7666 40.7459 75.6647 40.7243C75.5658 40.7027 75.4576 40.6795 75.3402 40.6548C75.2258 40.63 75.1177 40.596 75.0157 40.5528C74.9168 40.5095 74.8349 40.4462 74.77 40.3627C74.7051 40.2793 74.6727 40.168 74.6727 40.029C74.6727 39.8528 74.7221 39.7029 74.821 39.5793C74.9199 39.4557 75.0574 39.3615 75.2336 39.2966C75.4128 39.2286 75.6183 39.1946 75.8501 39.1946C76.017 39.1946 76.1807 39.2131 76.3414 39.2502C76.5021 39.2873 76.635 39.3398 76.7401 39.4078L76.5269 39.8528C76.4156 39.7817 76.2951 39.7323 76.1653 39.7045C76.0386 39.6767 75.915 39.6628 75.7945 39.6628C75.6059 39.6628 75.4653 39.6921 75.3726 39.7508C75.283 39.8065 75.2382 39.8775 75.2382 39.9641C75.2382 40.0321 75.2706 40.0846 75.3355 40.1217C75.4004 40.1588 75.4823 40.1897 75.5812 40.2144C75.6832 40.236 75.7914 40.2592 75.9057 40.2839C76.0231 40.3056 76.1313 40.338 76.2302 40.3813C76.3322 40.4245 76.4156 40.4879 76.4805 40.5713C76.5454 40.6517 76.5779 40.7598 76.5779 40.8958C76.5779 41.075 76.5269 41.228 76.4249 41.3547C76.326 41.4783 76.1869 41.5726 76.0077 41.6375C75.8284 41.6993 75.6229 41.7302 75.3912 41.7302ZM78.7086 41.7302C78.5015 41.7302 78.3223 41.6931 78.1708 41.619C78.0194 41.5417 77.9051 41.4289 77.8278 41.2806C77.7506 41.1291 77.715 40.9422 77.7212 40.7197C77.7274 40.4106 77.783 40.1418 77.8881 39.9131C77.9932 39.6844 78.1399 39.5082 78.3285 39.3846C78.5201 39.2579 78.7472 39.1946 79.0099 39.1946C79.2138 39.1946 79.3977 39.2378 79.5615 39.3244C79.7253 39.4078 79.8551 39.5314 79.9509 39.6952C80.0498 39.8559 80.0992 40.0506 80.0992 40.2793C80.0992 40.4894 80.0637 40.6826 79.9926 40.8587C79.9246 41.0349 79.8273 41.1878 79.7006 41.3176C79.5739 41.4474 79.4255 41.5494 79.2556 41.6236C79.0887 41.6947 78.9063 41.7302 78.7086 41.7302ZM77.0305 42.597L77.7027 39.2224H78.2543L78.143 39.7879L77.9901 40.4462L77.9066 41.109L77.6099 42.597H77.0305ZM78.6622 41.2342C78.8291 41.2342 78.9759 41.1956 79.1026 41.1183C79.2293 41.038 79.3297 40.9283 79.4039 40.7892C79.4781 40.6501 79.5151 40.4894 79.5151 40.3071C79.5151 40.1155 79.458 39.9641 79.3436 39.8528C79.2293 39.7416 79.0686 39.6859 78.8615 39.6859C78.6977 39.6859 78.551 39.7261 78.4212 39.8065C78.2945 39.8837 78.194 39.9919 78.1199 40.1309C78.0457 40.27 78.0086 40.4307 78.0086 40.613C78.0086 40.8046 78.0658 40.9561 78.1801 41.0673C78.2945 41.1786 78.4552 41.2342 78.6622 41.2342ZM81.8911 41.7302C81.65 41.7302 81.4383 41.6854 81.256 41.5958C81.0768 41.5031 80.9377 41.3764 80.8388 41.2157C80.7399 41.0519 80.6905 40.8603 80.6905 40.6409C80.6905 40.3627 80.7538 40.1155 80.8805 39.8992C81.0072 39.6798 81.1803 39.5082 81.3997 39.3846C81.6222 39.2579 81.8756 39.1946 82.1599 39.1946C82.4041 39.1946 82.6157 39.2394 82.795 39.329C82.9773 39.4155 83.1179 39.5407 83.2168 39.7045C83.3157 39.8652 83.3652 40.0568 83.3652 40.2793C83.3652 40.5543 83.3018 40.8016 83.1751 41.021C83.0484 41.2404 82.8738 41.4134 82.6513 41.5401C82.4319 41.6669 82.1785 41.7302 81.8911 41.7302ZM81.9281 41.2342C82.095 41.2342 82.2418 41.1956 82.3685 41.1183C82.4952 41.038 82.5957 40.9283 82.6698 40.7892C82.744 40.6501 82.7811 40.4894 82.7811 40.3071C82.7811 40.1155 82.7239 39.9641 82.6096 39.8528C82.4952 39.7416 82.3345 39.6859 82.1275 39.6859C81.9637 39.6859 81.8169 39.7261 81.6871 39.8065C81.5604 39.8837 81.46 39.9919 81.3858 40.1309C81.3116 40.27 81.2745 40.4307 81.2745 40.613C81.2745 40.8077 81.3317 40.9607 81.4461 41.072C81.5604 41.1801 81.7211 41.2342 81.9281 41.2342ZM83.9332 41.6978L84.4245 39.2224H84.9761L84.8371 39.927L84.7861 39.723C84.9004 39.5222 85.0457 39.3846 85.2218 39.3105C85.398 39.2332 85.6128 39.1946 85.8662 39.1946L85.7595 39.7462C85.7348 39.74 85.7116 39.7369 85.69 39.7369C85.6684 39.7338 85.6437 39.7323 85.6158 39.7323C85.3903 39.7323 85.2033 39.7926 85.0549 39.9131C84.9066 40.0305 84.8077 40.219 84.7583 40.4786L84.5126 41.6978H83.9332ZM87.1528 41.7302C86.9921 41.7302 86.8531 41.6962 86.7356 41.6282C86.6213 41.5571 86.5379 41.4583 86.4853 41.3315C86.4359 41.2018 86.4282 41.0488 86.4622 40.8726L86.9025 38.6754H87.482L87.0416 40.868C87.0231 40.9823 87.0354 41.075 87.0787 41.1461C87.1219 41.2172 87.2038 41.2527 87.3244 41.2527C87.38 41.2527 87.4356 41.245 87.4912 41.2296C87.55 41.211 87.6025 41.1863 87.6488 41.1554L87.7508 41.5819C87.6643 41.6375 87.5685 41.6761 87.4634 41.6978C87.3584 41.7194 87.2548 41.7302 87.1528 41.7302ZM86.2953 39.7045L86.388 39.2409H88.0336L87.9409 39.7045H86.2953Z" fill="white"/>
<defs>
<filter id="filter0_i_693_412" x="32.9603" y="23.564" width="47.1276" height="13.9065" filterUnits="userSpaceOnUse" color-interpolation-filters="sRGB">
<feFlood flood-opacity="0" result="BackgroundImageFix"/>
<feBlend mode="normal" in="SourceGraphic" in2="BackgroundImageFix" result="shape"/>
<feColorMatrix in="SourceAlpha" type="matrix" values="0 0 0 0 0 0 0 0 0 0 0 0 0 0 0 0 0 0 127 0" result="hardAlpha"/>
<feOffset dx="-0.772586" dy="1.54517"/>
<feGaussianBlur stdDeviation="0.772586"/>
<feComposite in2="hardAlpha" operator="arithmetic" k2="-1" k3="1"/>
<feColorMatrix type="matrix" values="0 0 0 0 0.0188 0 0 0 0 0.164155 0 0 0 0 0.235 0 0 0 0.4 0"/>
<feBlend mode="normal" in2="shape" result="effect1_innerShadow_693_412"/>
</filter>
</defs>
</svg>
